<?xml version="1.0" standalone="no"?>
<!DOCTYPE svg PUBLIC "-//W3C//DTD SVG 20010904//EN"
 "http://www.w3.org/TR/2001/REC-SVG-20010904/DTD/svg10.dtd">
<svg version="1.0" xmlns="http://www.w3.org/2000/svg"
 width="549.000000pt" height="549.000000pt" viewBox="0 0 549.000000 549.000000"
 preserveAspectRatio="xMidYMid meet">
<metadata>
Created by potrace 1.11, written by Peter Selinger 2001-2013
</metadata>
<g transform="translate(0.000000,549.000000) scale(0.100000,-0.100000)"
fill="#000000" stroke="none">
<path d="M0 2745 l0 -2745 2745 0 2745 0 0 2745 0 2745 -2745 0 -2745 0 0
-2745z m3238 898 l3 -103 119 0 c132 0 160 -7 209 -53 52 -50 61 -81 61 -217
0 -172 -30 -256 -130 -364 -63 -69 -148 -121 -231 -143 -70 -18 -71 -18 -116
-86 -65 -98 -174 -180 -285 -216 l-38 -13 0 -149 0 -149 203 -2 202 -3 3 -102
3 -103 -511 0 -511 0 3 103 3 102 203 3 202 2 0 149 0 149 -37 13 c-112 36
-221 118 -286 216 -45 68 -46 68 -116 86 -83 22 -168 74 -231 143 -100 108
-130 192 -130 363 0 133 7 161 53 210 50 52 81 61 217 61 l120 0 0 98 c0 54 3
102 7 105 3 4 232 6 507 5 l501 -3 3 -102z"/>
<path d="M2040 3263 c0 -128 29 -197 106 -252 78 -56 74 -63 74 144 l0 185
-90 0 -90 0 0 -77z"/>
<path d="M3240 3155 c0 -207 -4 -200 74 -144 77 55 106 124 106 252 l0 77 -90
0 -90 0 0 -185z"/>
</g>
</svg>
